<?xml version="1.0" encoding="utf-8"?>
<!-- Generator: Adobe Illustrator 25.2.3, SVG Export Plug-In . SVG Version: 6.00 Build 0)  -->
<svg version="1.1" id="Layer_1" xmlns="http://www.w3.org/2000/svg" xmlns:xlink="http://www.w3.org/1999/xlink" x="0px" y="0px"
	 viewBox="0 0 395.9 69.2" style="enable-background:new 0 0 395.9 69.2;" xml:space="preserve">
<style type="text/css">
	.st0{fill:#DEE3EA;}
	.st1{fill:#F44656;}
</style>
<g>
	<path class="st0" d="M3.9,1.4c0-0.6,0.3-1,1-1h30.4c3.6,0,6.6,0.6,9,1.7c2.5,1.1,4.5,2.7,6,4.6c1.5,2,2.6,4.3,3.3,7
		c0.7,2.7,1,5.7,1,9c0,3.4-0.4,6.4-1,9.1c-0.7,2.7-1.8,5.1-3.3,7c-1.5,2-3.5,3.5-6,4.5s-5.5,1.6-9,1.6H18.7c-0.6,0-1,0.3-1,1v21.8
		c0,0.6-0.3,1-1,1H4.9c-0.6,0-1-0.3-1-1V2.5V1.4z M18.7,12.9c-0.6,0-1,0.3-1,1v17.9c0,0.6,0.3,1,1,1h18.2c1.1,0,2-0.4,2.7-1.2
		s1.2-1.7,1.5-2.8c0.3-1.1,0.5-2.2,0.6-3.3c0.1-1.1,0.1-2,0.1-2.6c0-0.6,0-1.5-0.1-2.6c-0.1-1.1-0.3-2.2-0.6-3.3
		c-0.3-1.1-0.8-2-1.5-2.8c-0.7-0.8-1.6-1.2-2.7-1.2H18.7z"/>
	<path class="st0" d="M85,19.1c0.6,0,1,0.3,1,1v9.7c0,0.6-0.3,1-1,1h-9.1c-0.6,0-1.1,0.2-1.5,0.5c-0.4,0.3-0.8,0.7-1.2,1.1
		c-0.3,0.4-0.6,0.9-0.8,1.3C72.1,34.1,72,34.6,72,35v32.9c0,0.6-0.3,1-1,1H60.4c-0.6,0-1-0.3-1-1V31.6c0-1.7,0.3-3.2,1-4.8
		c0.7-1.5,1.6-2.9,2.7-4c1.1-1.1,2.5-2,4-2.7s3.1-1,4.9-1H85z"/>
	<path class="st0" d="M93.8,19.1h26.9c2.4,0,4.5,0.5,6.1,1.6s3,2.4,4.1,4c1,1.7,1.8,3.5,2.3,5.5c0.5,2,0.7,4.1,0.7,6.1v31.4
		c0,0.6-0.3,1-1,1H99.7c-1.9,0-3.5-0.6-4.7-1.8c-1.2-1.2-2.1-2.6-2.8-4.1c-0.7-1.6-1.1-3.2-1.4-4.8c-0.3-1.6-0.4-2.8-0.4-3.6
		c0-1.5,0.2-3.2,0.6-5c0.4-1.8,1-3.5,1.8-5.1c0.8-1.6,1.9-2.9,3.2-4c1.3-1.1,3-1.6,4.9-1.6h15.9c1.7,0,3-0.4,4-1.2
		c1-0.8,1.5-1.7,1.5-2.8c0-0.9-0.3-1.8-1-2.7c-0.6-0.9-1.5-1.3-2.5-1.3h-25c-0.6,0-1-0.3-1-1v-9.7C92.9,19.5,93.2,19.1,93.8,19.1z
		 M121.3,57.6c0.6,0,1-0.3,1-1V51c0-0.6-0.3-1-1-1h-17c-0.9,0-1.6,0.4-2.2,1.1c-0.6,0.7-0.9,1.5-0.9,2.4c0,1.1,0.3,2,1,2.9
		c0.6,0.8,1.5,1.2,2.7,1.2H121.3z"/>
	<path class="st0" d="M180.6,57.1c0.6,0,1,0.3,1,1v9.7c0,0.6-0.3,1-1,1h-17.9c-3.5,0-6.6-0.6-9.3-1.9c-2.7-1.2-5-2.9-7-4.9
		c-1.9-2-3.4-4.2-4.4-6.7c-1-2.4-1.5-4.9-1.5-7.3v-8c0-3.2,0.5-6.1,1.4-8.7c0.9-2.6,2.3-4.8,4.3-6.6c1.9-1.8,4.4-3.2,7.5-4.2
		c3-1,6.7-1.5,10.9-1.5h16.1c0.6,0,1,0.3,1,1v9.7c0,0.6-0.3,1-1,1h-18c-3.7,0-6.4,1.1-8.2,3.3c-1.8,2.2-2.7,5-2.7,8.2v4.1
		c0,3.2,0.9,5.8,2.6,7.8c1.7,2,4.5,3,8.3,3H180.6z"/>
	<path class="st0" d="M228.4,57.1c0.6,0,1,0.3,1,1v9.7c0,0.6-0.3,1-1,1h-17.9c-3.5,0-6.6-0.6-9.3-1.9c-2.7-1.2-5-2.9-7-4.9
		c-1.9-2-3.4-4.2-4.4-6.7c-1-2.4-1.5-4.9-1.5-7.3v-8c0-3.2,0.5-6.1,1.4-8.7c0.9-2.6,2.3-4.8,4.3-6.6c1.9-1.8,4.4-3.2,7.5-4.2
		c3-1,6.7-1.5,10.9-1.5h16.1c0.6,0,1,0.3,1,1v9.7c0,0.6-0.3,1-1,1h-18c-3.7,0-6.4,1.1-8.2,3.3c-1.8,2.2-2.7,5-2.7,8.2v4.1
		c0,3.2,0.9,5.8,2.6,7.8c1.7,2,4.5,3,8.3,3H228.4z"/>
	<path class="st1" d="M237.1,1.4c0-0.6,0.3-1,1-1H250c0.6,0,1,0.3,1,1v25.9c0,0.6,0.3,1,1,1h22.6c0.6,0,1-0.3,1-1V1.4
		c0-0.6,0.3-1,1-1h11.9c0.6,0,1,0.3,1,1v66.4c0,0.6-0.3,1-1,1h-11.9c-0.6,0-1-0.3-1-1V41.6c0-0.6-0.3-1-1-1h-22.6c-0.6,0-1,0.3-1,1
		v26.2c0,0.6-0.3,1-1,1h-11.9c-0.6,0-1-0.3-1-1V1.4z"/>
	<path class="st1" d="M328.4,19.1h9.7c0.6,0,1,0.3,1,1v37.5c0,2-0.6,3.8-1.9,5.2c-1.2,1.5-2.9,2.7-4.9,3.6c-2,1-4.3,1.7-6.8,2.1
		c-2.5,0.4-5,0.7-7.6,0.7c-2.6,0-5.2-0.2-7.7-0.7c-2.5-0.4-4.7-1.1-6.7-2.1c-2-1-3.6-2.2-4.8-3.6c-1.2-1.5-1.9-3.2-1.9-5.2V20.1
		c0-0.6,0.3-1,1-1h9.7c0.6,0,1,0.3,1,1v33.4c0,0.6,0.3,1.1,0.8,1.6c0.5,0.5,1.2,1,2.1,1.3s1.9,0.7,3,0.9c1.1,0.2,2.3,0.3,3.5,0.3
		c1.2,0,2.4-0.1,3.5-0.3c1.1-0.2,2.1-0.5,3-0.9c0.9-0.4,1.6-0.8,2.1-1.3c0.5-0.5,0.8-1,0.8-1.6V20.1
		C327.4,19.5,327.8,19.1,328.4,19.1z"/>
	<path class="st1" d="M359.2,19.1h18c3,0,5.7,0.6,7.8,1.8c2.2,1.2,3.9,2.9,5.3,5.1c1.4,2.2,2.4,4.8,3.1,8c0.7,3.1,1,6.5,1,10.3
		c0,2.9-0.3,5.7-1,8.7c-0.7,2.9-1.7,5.5-3.1,7.9c-1.4,2.3-3.2,4.2-5.4,5.7c-2.2,1.5-4.7,2.2-7.7,2.2h-29.6c-0.6,0-1-0.3-1-1V1.4
		c0-0.6,0.3-1,1-1h9.7c0.6,0,1,0.3,1,1v16.8C358.3,18.8,358.6,19.1,359.2,19.1z M358.3,56.2c0,0.6,0.3,1,1,1h10.4
		c2,0,3.8-0.2,5.4-0.6c1.7-0.4,3-1,4.2-2c1.1-1,2-2.3,2.7-3.9c0.6-1.7,1-3.8,1-6.4c0-2.8-0.3-5.1-1-6.9c-0.6-1.8-1.5-3.2-2.7-4.1
		c-1.2-1-2.6-1.7-4.2-2c-1.6-0.3-3.4-0.5-5.4-0.5h-10.4c-0.6,0-1,0.3-1,1V56.2z"/>
</g>
</svg>
